<mxfile host="app.diagrams.net" modified="2023-08-06T03:15:22.551Z" agent="Mozilla/5.0 (Windows NT 10.0; Win64; x64) AppleWebKit/537.36 (KHTML, like Gecko) Chrome/115.0.0.0 Safari/537.36" etag="GsRzyVakCAmoRym389Mk" version="21.6.6" type="device">
  <diagram name="Page-1" id="yMpTU5p-G9wKAhyfBIfd">
    <mxGraphModel dx="1642" dy="1534" grid="1" gridSize="10" guides="1" tooltips="1" connect="1" arrows="1" fold="1" page="1" pageScale="1" pageWidth="850" pageHeight="1100" math="0" shadow="0">
      <root>
        <mxCell id="0" />
        <mxCell id="1" parent="0" />
        <mxCell id="3lc1lyFvEJLZcT9KBqFn-1" value="Musicians" style="rounded=0;whiteSpace=wrap;html=1;fontSize=17;fillColor=#f8cecc;strokeColor=#b85450;" parent="1" vertex="1">
          <mxGeometry x="120" y="120" width="120" height="50" as="geometry" />
        </mxCell>
        <mxCell id="3lc1lyFvEJLZcT9KBqFn-2" value="&lt;u style=&quot;font-size: 17px;&quot;&gt;id&lt;/u&gt;" style="ellipse;whiteSpace=wrap;html=1;fontSize=17;fillColor=#f8cecc;strokeColor=#b85450;" parent="1" vertex="1">
          <mxGeometry x="280" y="10" width="110" height="60" as="geometry" />
        </mxCell>
        <mxCell id="3lc1lyFvEJLZcT9KBqFn-3" value="name" style="ellipse;whiteSpace=wrap;html=1;fontSize=17;fillColor=#f8cecc;strokeColor=#b85450;" parent="1" vertex="1">
          <mxGeometry x="130" y="-40" width="120" height="70" as="geometry" />
        </mxCell>
        <mxCell id="3lc1lyFvEJLZcT9KBqFn-4" value="address" style="ellipse;whiteSpace=wrap;html=1;fontSize=17;fillColor=#f8cecc;strokeColor=#b85450;" parent="1" vertex="1">
          <mxGeometry y="30" width="130" height="60" as="geometry" />
        </mxCell>
        <mxCell id="3lc1lyFvEJLZcT9KBqFn-5" value="city" style="ellipse;whiteSpace=wrap;html=1;fontSize=17;fillColor=#f8cecc;strokeColor=#b85450;" parent="1" vertex="1">
          <mxGeometry x="-30" y="-80" width="120" height="70" as="geometry" />
        </mxCell>
        <mxCell id="3lc1lyFvEJLZcT9KBqFn-6" value="street" style="ellipse;whiteSpace=wrap;html=1;fontSize=17;fillColor=#f8cecc;strokeColor=#b85450;" parent="1" vertex="1">
          <mxGeometry x="-150" y="-30" width="130" height="70" as="geometry" />
        </mxCell>
        <mxCell id="3lc1lyFvEJLZcT9KBqFn-7" value="" style="endArrow=none;html=1;rounded=0;entryX=0.401;entryY=1.015;entryDx=0;entryDy=0;entryPerimeter=0;fontSize=17;fillColor=#f8cecc;strokeColor=#b85450;" parent="1" target="3lc1lyFvEJLZcT9KBqFn-3" edge="1">
          <mxGeometry width="50" height="50" relative="1" as="geometry">
            <mxPoint x="180" y="120" as="sourcePoint" />
            <mxPoint x="230" y="70" as="targetPoint" />
          </mxGeometry>
        </mxCell>
        <mxCell id="3lc1lyFvEJLZcT9KBqFn-8" value="" style="endArrow=none;html=1;rounded=0;entryX=0;entryY=1;entryDx=0;entryDy=0;fontSize=17;fillColor=#f8cecc;strokeColor=#b85450;" parent="1" target="3lc1lyFvEJLZcT9KBqFn-2" edge="1">
          <mxGeometry width="50" height="50" relative="1" as="geometry">
            <mxPoint x="220" y="120" as="sourcePoint" />
            <mxPoint x="270" y="70" as="targetPoint" />
          </mxGeometry>
        </mxCell>
        <mxCell id="3lc1lyFvEJLZcT9KBqFn-9" value="phone number" style="ellipse;whiteSpace=wrap;html=1;fontSize=17;fillColor=#f8cecc;strokeColor=#b85450;" parent="1" vertex="1">
          <mxGeometry x="-130" y="110" width="130" height="80" as="geometry" />
        </mxCell>
        <mxCell id="3lc1lyFvEJLZcT9KBqFn-10" value="" style="endArrow=none;html=1;rounded=0;exitX=1;exitY=0.5;exitDx=0;exitDy=0;fontSize=17;fillColor=#f8cecc;strokeColor=#b85450;" parent="1" source="3lc1lyFvEJLZcT9KBqFn-9" edge="1">
          <mxGeometry width="50" height="50" relative="1" as="geometry">
            <mxPoint x="70" y="200" as="sourcePoint" />
            <mxPoint x="120" y="150" as="targetPoint" />
          </mxGeometry>
        </mxCell>
        <mxCell id="3lc1lyFvEJLZcT9KBqFn-11" value="" style="endArrow=none;html=1;rounded=0;exitX=1;exitY=1;exitDx=0;exitDy=0;fontSize=17;fillColor=#f8cecc;strokeColor=#b85450;" parent="1" source="3lc1lyFvEJLZcT9KBqFn-4" edge="1">
          <mxGeometry width="50" height="50" relative="1" as="geometry">
            <mxPoint x="90" y="170" as="sourcePoint" />
            <mxPoint x="140" y="120" as="targetPoint" />
          </mxGeometry>
        </mxCell>
        <mxCell id="3lc1lyFvEJLZcT9KBqFn-12" value="" style="endArrow=none;html=1;rounded=0;exitX=0.5;exitY=0;exitDx=0;exitDy=0;entryX=0.588;entryY=0.995;entryDx=0;entryDy=0;entryPerimeter=0;fontSize=17;fillColor=#f8cecc;strokeColor=#b85450;" parent="1" source="3lc1lyFvEJLZcT9KBqFn-4" target="3lc1lyFvEJLZcT9KBqFn-5" edge="1">
          <mxGeometry width="50" height="50" relative="1" as="geometry">
            <mxPoint y="50" as="sourcePoint" />
            <mxPoint x="50" as="targetPoint" />
          </mxGeometry>
        </mxCell>
        <mxCell id="3lc1lyFvEJLZcT9KBqFn-13" value="" style="endArrow=none;html=1;rounded=0;exitX=0.968;exitY=0.729;exitDx=0;exitDy=0;exitPerimeter=0;fontSize=17;fillColor=#f8cecc;strokeColor=#b85450;" parent="1" source="3lc1lyFvEJLZcT9KBqFn-6" target="3lc1lyFvEJLZcT9KBqFn-4" edge="1">
          <mxGeometry width="50" height="50" relative="1" as="geometry">
            <mxPoint x="-50" y="100" as="sourcePoint" />
            <mxPoint y="50" as="targetPoint" />
          </mxGeometry>
        </mxCell>
        <mxCell id="3lc1lyFvEJLZcT9KBqFn-14" value="instument" style="rounded=0;whiteSpace=wrap;html=1;fontSize=17;fillColor=#f8cecc;strokeColor=#b85450;" parent="1" vertex="1">
          <mxGeometry x="120" y="440" width="120" height="50" as="geometry" />
        </mxCell>
        <mxCell id="3lc1lyFvEJLZcT9KBqFn-15" value="name" style="ellipse;whiteSpace=wrap;html=1;fontStyle=4;fontSize=17;fillColor=#f8cecc;strokeColor=#b85450;" parent="1" vertex="1">
          <mxGeometry x="30" y="540" width="130" height="70" as="geometry" />
        </mxCell>
        <mxCell id="3lc1lyFvEJLZcT9KBqFn-16" value="musical key" style="ellipse;whiteSpace=wrap;html=1;fontSize=17;fillColor=#f8cecc;strokeColor=#b85450;" parent="1" vertex="1">
          <mxGeometry x="180" y="545" width="110" height="60" as="geometry" />
        </mxCell>
        <mxCell id="3lc1lyFvEJLZcT9KBqFn-17" value="" style="endArrow=none;html=1;rounded=0;exitX=0.5;exitY=0;exitDx=0;exitDy=0;entryX=0.173;entryY=1.059;entryDx=0;entryDy=0;entryPerimeter=0;fontSize=17;fillColor=#f8cecc;strokeColor=#b85450;" parent="1" source="3lc1lyFvEJLZcT9KBqFn-15" target="3lc1lyFvEJLZcT9KBqFn-14" edge="1">
          <mxGeometry width="50" height="50" relative="1" as="geometry">
            <mxPoint x="80" y="500" as="sourcePoint" />
            <mxPoint x="130" y="450" as="targetPoint" />
          </mxGeometry>
        </mxCell>
        <mxCell id="3lc1lyFvEJLZcT9KBqFn-18" value="" style="endArrow=none;html=1;rounded=0;exitX=0.389;exitY=-0.005;exitDx=0;exitDy=0;exitPerimeter=0;entryX=0.5;entryY=1;entryDx=0;entryDy=0;fontSize=17;fillColor=#f8cecc;strokeColor=#b85450;" parent="1" source="3lc1lyFvEJLZcT9KBqFn-16" target="3lc1lyFvEJLZcT9KBqFn-14" edge="1">
          <mxGeometry width="50" height="50" relative="1" as="geometry">
            <mxPoint x="140" y="500" as="sourcePoint" />
            <mxPoint x="190" y="450" as="targetPoint" />
          </mxGeometry>
        </mxCell>
        <mxCell id="3lc1lyFvEJLZcT9KBqFn-19" value="albums" style="rounded=0;whiteSpace=wrap;html=1;fontSize=17;fillColor=#f8cecc;strokeColor=#b85450;" parent="1" vertex="1">
          <mxGeometry x="635" y="438" width="130" height="50" as="geometry" />
        </mxCell>
        <mxCell id="3lc1lyFvEJLZcT9KBqFn-20" value="&lt;u style=&quot;font-size: 17px;&quot;&gt;title&lt;/u&gt;" style="ellipse;whiteSpace=wrap;html=1;fontSize=17;fillColor=#f8cecc;strokeColor=#b85450;" parent="1" vertex="1">
          <mxGeometry x="580" y="558" width="110" height="60" as="geometry" />
        </mxCell>
        <mxCell id="3lc1lyFvEJLZcT9KBqFn-21" value="copy right date" style="ellipse;whiteSpace=wrap;html=1;fontSize=17;fillColor=#f8cecc;strokeColor=#b85450;" parent="1" vertex="1">
          <mxGeometry x="710" y="548" width="120" height="60" as="geometry" />
        </mxCell>
        <mxCell id="3lc1lyFvEJLZcT9KBqFn-22" value="album idendifier" style="ellipse;whiteSpace=wrap;html=1;fontSize=17;fillColor=#f8cecc;strokeColor=#b85450;" parent="1" vertex="1">
          <mxGeometry x="800" y="480" width="120" height="70" as="geometry" />
        </mxCell>
        <mxCell id="3lc1lyFvEJLZcT9KBqFn-23" value="" style="endArrow=none;html=1;rounded=0;exitX=0.5;exitY=0;exitDx=0;exitDy=0;entryX=0.332;entryY=1.019;entryDx=0;entryDy=0;entryPerimeter=0;fontSize=17;fillColor=#f8cecc;strokeColor=#b85450;" parent="1" source="3lc1lyFvEJLZcT9KBqFn-20" target="3lc1lyFvEJLZcT9KBqFn-19" edge="1">
          <mxGeometry width="50" height="50" relative="1" as="geometry">
            <mxPoint x="590" y="528" as="sourcePoint" />
            <mxPoint x="640" y="478" as="targetPoint" />
          </mxGeometry>
        </mxCell>
        <mxCell id="3lc1lyFvEJLZcT9KBqFn-24" value="" style="endArrow=none;html=1;rounded=0;exitX=0.338;exitY=0.051;exitDx=0;exitDy=0;exitPerimeter=0;entryX=0.75;entryY=1;entryDx=0;entryDy=0;fontSize=17;fillColor=#f8cecc;strokeColor=#b85450;" parent="1" source="3lc1lyFvEJLZcT9KBqFn-21" target="3lc1lyFvEJLZcT9KBqFn-19" edge="1">
          <mxGeometry width="50" height="50" relative="1" as="geometry">
            <mxPoint x="650" y="528" as="sourcePoint" />
            <mxPoint x="700" y="478" as="targetPoint" />
          </mxGeometry>
        </mxCell>
        <mxCell id="3lc1lyFvEJLZcT9KBqFn-25" value="" style="endArrow=none;html=1;rounded=0;exitX=0.05;exitY=0.338;exitDx=0;exitDy=0;exitPerimeter=0;entryX=1;entryY=0.75;entryDx=0;entryDy=0;fontSize=17;fillColor=#f8cecc;strokeColor=#b85450;" parent="1" source="3lc1lyFvEJLZcT9KBqFn-22" target="3lc1lyFvEJLZcT9KBqFn-19" edge="1">
          <mxGeometry width="50" height="50" relative="1" as="geometry">
            <mxPoint x="670" y="508" as="sourcePoint" />
            <mxPoint x="720" y="458" as="targetPoint" />
          </mxGeometry>
        </mxCell>
        <mxCell id="3lc1lyFvEJLZcT9KBqFn-28" value="songs" style="rounded=0;whiteSpace=wrap;html=1;fontSize=17;fillColor=#f8cecc;strokeColor=#b85450;" parent="1" vertex="1">
          <mxGeometry x="620" y="110" width="130" height="50" as="geometry" />
        </mxCell>
        <mxCell id="3lc1lyFvEJLZcT9KBqFn-29" value="&lt;u style=&quot;font-size: 17px;&quot;&gt;title&lt;/u&gt;" style="ellipse;whiteSpace=wrap;html=1;fontSize=17;fillColor=#f8cecc;strokeColor=#b85450;" parent="1" vertex="1">
          <mxGeometry x="560" width="110" height="60" as="geometry" />
        </mxCell>
        <mxCell id="3lc1lyFvEJLZcT9KBqFn-30" value="author" style="ellipse;whiteSpace=wrap;html=1;fontSize=17;fillColor=#f8cecc;strokeColor=#b85450;" parent="1" vertex="1">
          <mxGeometry x="700" y="10" width="120" height="60" as="geometry" />
        </mxCell>
        <mxCell id="3lc1lyFvEJLZcT9KBqFn-32" value="" style="endArrow=none;html=1;rounded=0;exitX=0.5;exitY=1;exitDx=0;exitDy=0;entryX=0.25;entryY=0;entryDx=0;entryDy=0;fontSize=17;fillColor=#f8cecc;strokeColor=#b85450;" parent="1" source="3lc1lyFvEJLZcT9KBqFn-29" target="3lc1lyFvEJLZcT9KBqFn-28" edge="1">
          <mxGeometry width="50" height="50" relative="1" as="geometry">
            <mxPoint x="610" y="200" as="sourcePoint" />
            <mxPoint x="660" y="150" as="targetPoint" />
          </mxGeometry>
        </mxCell>
        <mxCell id="3lc1lyFvEJLZcT9KBqFn-33" value="" style="endArrow=none;html=1;rounded=0;exitX=0.246;exitY=0.93;exitDx=0;exitDy=0;exitPerimeter=0;entryX=0.75;entryY=0;entryDx=0;entryDy=0;fontSize=17;fillColor=#f8cecc;strokeColor=#b85450;" parent="1" source="3lc1lyFvEJLZcT9KBqFn-30" target="3lc1lyFvEJLZcT9KBqFn-28" edge="1">
          <mxGeometry width="50" height="50" relative="1" as="geometry">
            <mxPoint x="670" y="200" as="sourcePoint" />
            <mxPoint x="720" y="150" as="targetPoint" />
          </mxGeometry>
        </mxCell>
        <mxCell id="3lc1lyFvEJLZcT9KBqFn-35" value="play" style="rhombus;whiteSpace=wrap;html=1;fontSize=17;fillColor=#f8cecc;strokeColor=#b85450;" parent="1" vertex="1">
          <mxGeometry x="140" y="270" width="80" height="80" as="geometry" />
        </mxCell>
        <mxCell id="3lc1lyFvEJLZcT9KBqFn-36" value="" style="endArrow=none;html=1;rounded=0;exitX=0.5;exitY=0;exitDx=0;exitDy=0;entryX=0.5;entryY=1;entryDx=0;entryDy=0;fontSize=17;fillColor=#f8cecc;strokeColor=#b85450;" parent="1" source="3lc1lyFvEJLZcT9KBqFn-35" target="3lc1lyFvEJLZcT9KBqFn-1" edge="1">
          <mxGeometry width="50" height="50" relative="1" as="geometry">
            <mxPoint x="120" y="220" as="sourcePoint" />
            <mxPoint x="170" y="170" as="targetPoint" />
          </mxGeometry>
        </mxCell>
        <mxCell id="3lc1lyFvEJLZcT9KBqFn-37" value="" style="endArrow=none;html=1;rounded=0;exitX=0.5;exitY=0;exitDx=0;exitDy=0;entryX=0.5;entryY=1;entryDx=0;entryDy=0;fontSize=17;fillColor=#f8cecc;strokeColor=#b85450;" parent="1" source="3lc1lyFvEJLZcT9KBqFn-14" target="3lc1lyFvEJLZcT9KBqFn-35" edge="1">
          <mxGeometry width="50" height="50" relative="1" as="geometry">
            <mxPoint x="130" y="400" as="sourcePoint" />
            <mxPoint x="180" y="350" as="targetPoint" />
          </mxGeometry>
        </mxCell>
        <mxCell id="3lc1lyFvEJLZcT9KBqFn-38" value="m" style="text;html=1;align=center;verticalAlign=middle;resizable=0;points=[];autosize=1;fontSize=17;" parent="1" vertex="1">
          <mxGeometry x="140" y="408" width="40" height="30" as="geometry" />
        </mxCell>
        <mxCell id="3lc1lyFvEJLZcT9KBqFn-39" value="m" style="text;html=1;align=center;verticalAlign=middle;resizable=0;points=[];autosize=1;fontSize=17;" parent="1" vertex="1">
          <mxGeometry x="180" y="168" width="40" height="30" as="geometry" />
        </mxCell>
        <mxCell id="3lc1lyFvEJLZcT9KBqFn-41" value="has" style="rhombus;whiteSpace=wrap;html=1;fontSize=17;fillColor=#f8cecc;strokeColor=#b85450;" parent="1" vertex="1">
          <mxGeometry x="645" y="270" width="80" height="80" as="geometry" />
        </mxCell>
        <mxCell id="3lc1lyFvEJLZcT9KBqFn-42" value="" style="endArrow=none;html=1;rounded=0;entryX=0.5;entryY=1;entryDx=0;entryDy=0;fontSize=17;fillColor=#f8cecc;strokeColor=#b85450;" parent="1" target="3lc1lyFvEJLZcT9KBqFn-41" edge="1">
          <mxGeometry width="50" height="50" relative="1" as="geometry">
            <mxPoint x="695" y="440" as="sourcePoint" />
            <mxPoint x="690" y="350" as="targetPoint" />
          </mxGeometry>
        </mxCell>
        <mxCell id="3lc1lyFvEJLZcT9KBqFn-45" value="m" style="text;html=1;align=center;verticalAlign=middle;resizable=0;points=[];autosize=1;fontSize=17;" parent="1" vertex="1">
          <mxGeometry x="680" y="158" width="40" height="30" as="geometry" />
        </mxCell>
        <mxCell id="3lc1lyFvEJLZcT9KBqFn-46" value="" style="endArrow=none;html=1;rounded=0;fontSize=17;fillColor=#f8cecc;strokeColor=#b85450;" parent="1" edge="1">
          <mxGeometry width="50" height="50" relative="1" as="geometry">
            <mxPoint x="700" y="440" as="sourcePoint" />
            <mxPoint x="690" y="340" as="targetPoint" />
          </mxGeometry>
        </mxCell>
        <mxCell id="3lc1lyFvEJLZcT9KBqFn-47" value="" style="endArrow=none;html=1;rounded=0;exitX=0.5;exitY=0;exitDx=0;exitDy=0;fontSize=17;fillColor=#f8cecc;strokeColor=#b85450;" parent="1" source="3lc1lyFvEJLZcT9KBqFn-41" edge="1">
          <mxGeometry width="50" height="50" relative="1" as="geometry">
            <mxPoint x="630" y="210" as="sourcePoint" />
            <mxPoint x="680" y="160" as="targetPoint" />
          </mxGeometry>
        </mxCell>
        <mxCell id="3lc1lyFvEJLZcT9KBqFn-48" value="1" style="text;html=1;align=center;verticalAlign=middle;resizable=0;points=[];autosize=1;fontSize=17;" parent="1" vertex="1">
          <mxGeometry x="705" y="408" width="30" height="30" as="geometry" />
        </mxCell>
        <mxCell id="3lc1lyFvEJLZcT9KBqFn-50" value="perform" style="rhombus;whiteSpace=wrap;html=1;fontSize=17;fillColor=#f8cecc;strokeColor=#b85450;" parent="1" vertex="1">
          <mxGeometry x="400" y="105" width="80" height="80" as="geometry" />
        </mxCell>
        <mxCell id="3lc1lyFvEJLZcT9KBqFn-51" value="" style="endArrow=none;html=1;rounded=0;entryX=0;entryY=0.5;entryDx=0;entryDy=0;exitX=1;exitY=0.5;exitDx=0;exitDy=0;fontSize=17;fillColor=#f8cecc;strokeColor=#b85450;" parent="1" source="3lc1lyFvEJLZcT9KBqFn-1" target="3lc1lyFvEJLZcT9KBqFn-50" edge="1">
          <mxGeometry width="50" height="50" relative="1" as="geometry">
            <mxPoint x="240" y="160" as="sourcePoint" />
            <mxPoint x="290" y="110" as="targetPoint" />
          </mxGeometry>
        </mxCell>
        <mxCell id="3lc1lyFvEJLZcT9KBqFn-52" value="" style="endArrow=none;html=1;rounded=0;entryX=0;entryY=0.75;entryDx=0;entryDy=0;exitX=1;exitY=0.5;exitDx=0;exitDy=0;fontSize=17;fillColor=#f8cecc;strokeColor=#b85450;" parent="1" source="3lc1lyFvEJLZcT9KBqFn-50" target="3lc1lyFvEJLZcT9KBqFn-28" edge="1">
          <mxGeometry width="50" height="50" relative="1" as="geometry">
            <mxPoint x="550" y="210" as="sourcePoint" />
            <mxPoint x="600" y="160" as="targetPoint" />
          </mxGeometry>
        </mxCell>
        <mxCell id="3lc1lyFvEJLZcT9KBqFn-53" value="m" style="text;html=1;align=center;verticalAlign=middle;resizable=0;points=[];autosize=1;fontSize=17;" parent="1" vertex="1">
          <mxGeometry x="235" y="120" width="40" height="30" as="geometry" />
        </mxCell>
        <mxCell id="3lc1lyFvEJLZcT9KBqFn-54" value="m" style="text;html=1;align=center;verticalAlign=middle;resizable=0;points=[];autosize=1;fontSize=17;" parent="1" vertex="1">
          <mxGeometry x="580" y="138" width="40" height="30" as="geometry" />
        </mxCell>
        <mxCell id="3lc1lyFvEJLZcT9KBqFn-55" value="produce" style="rhombus;whiteSpace=wrap;html=1;fontSize=17;fillColor=#f8cecc;strokeColor=#b85450;" parent="1" vertex="1">
          <mxGeometry x="400" y="290" width="80" height="80" as="geometry" />
        </mxCell>
        <mxCell id="3lc1lyFvEJLZcT9KBqFn-56" value="" style="endArrow=none;html=1;rounded=0;exitX=0.851;exitY=1.052;exitDx=0;exitDy=0;exitPerimeter=0;entryX=0;entryY=0.5;entryDx=0;entryDy=0;fontSize=17;fillColor=#f8cecc;strokeColor=#b85450;" parent="1" source="3lc1lyFvEJLZcT9KBqFn-60" target="3lc1lyFvEJLZcT9KBqFn-55" edge="1">
          <mxGeometry width="50" height="50" relative="1" as="geometry">
            <mxPoint x="350" y="380" as="sourcePoint" />
            <mxPoint x="400" y="330" as="targetPoint" />
          </mxGeometry>
        </mxCell>
        <mxCell id="3lc1lyFvEJLZcT9KBqFn-57" value="" style="endArrow=none;html=1;rounded=0;entryX=0;entryY=0;entryDx=0;entryDy=0;exitX=1;exitY=0.5;exitDx=0;exitDy=0;fontSize=17;fillColor=#f8cecc;strokeColor=#b85450;" parent="1" source="3lc1lyFvEJLZcT9KBqFn-55" target="3lc1lyFvEJLZcT9KBqFn-19" edge="1">
          <mxGeometry width="50" height="50" relative="1" as="geometry">
            <mxPoint x="480" y="340" as="sourcePoint" />
            <mxPoint x="530" y="290" as="targetPoint" />
          </mxGeometry>
        </mxCell>
        <mxCell id="3lc1lyFvEJLZcT9KBqFn-61" value="m" style="text;html=1;align=center;verticalAlign=middle;resizable=0;points=[];autosize=1;fontSize=17;" parent="1" vertex="1">
          <mxGeometry x="590" y="428" width="40" height="30" as="geometry" />
        </mxCell>
        <mxCell id="3lc1lyFvEJLZcT9KBqFn-62" value="" style="endArrow=none;html=1;rounded=0;entryX=0;entryY=0.25;entryDx=0;entryDy=0;exitX=0.898;exitY=0.602;exitDx=0;exitDy=0;exitPerimeter=0;fontSize=17;fillColor=#f8cecc;strokeColor=#b85450;" parent="1" source="3lc1lyFvEJLZcT9KBqFn-55" target="3lc1lyFvEJLZcT9KBqFn-19" edge="1">
          <mxGeometry width="50" height="50" relative="1" as="geometry">
            <mxPoint x="560" y="320" as="sourcePoint" />
            <mxPoint x="610" y="270" as="targetPoint" />
          </mxGeometry>
        </mxCell>
        <mxCell id="3lc1lyFvEJLZcT9KBqFn-63" value="" style="endArrow=none;html=1;rounded=0;exitX=0.851;exitY=1.052;exitDx=0;exitDy=0;exitPerimeter=0;entryX=0;entryY=0.5;entryDx=0;entryDy=0;fontSize=17;fillColor=#f8cecc;strokeColor=#b85450;" parent="1" source="3lc1lyFvEJLZcT9KBqFn-1" target="3lc1lyFvEJLZcT9KBqFn-60" edge="1">
          <mxGeometry width="50" height="50" relative="1" as="geometry">
            <mxPoint x="222" y="173" as="sourcePoint" />
            <mxPoint x="400" y="330" as="targetPoint" />
          </mxGeometry>
        </mxCell>
        <mxCell id="3lc1lyFvEJLZcT9KBqFn-60" value="1" style="text;html=1;align=center;verticalAlign=middle;resizable=0;points=[];autosize=1;fontSize=17;" parent="1" vertex="1">
          <mxGeometry x="240" y="180" width="30" height="30" as="geometry" />
        </mxCell>
        <mxCell id="3lc1lyFvEJLZcT9KBqFn-64" value="" style="endArrow=none;html=1;rounded=0;exitX=0.881;exitY=0.394;exitDx=0;exitDy=0;exitPerimeter=0;fontSize=17;fillColor=#f8cecc;strokeColor=#b85450;" parent="1" source="3lc1lyFvEJLZcT9KBqFn-50" edge="1">
          <mxGeometry width="50" height="50" relative="1" as="geometry">
            <mxPoint x="520" y="170" as="sourcePoint" />
            <mxPoint x="620" y="140" as="targetPoint" />
          </mxGeometry>
        </mxCell>
      </root>
    </mxGraphModel>
  </diagram>
</mxfile>
